<svg xmlns="http://www.w3.org/2000/svg" width="32" height="32" viewBox="0 0 32 32">
  <defs>
    <linearGradient id="grad" x1="0%" y1="0%" x2="100%" y2="100%">
      <stop offset="0%" style="stop-color:#8B0000;stop-opacity:1" />
      <stop offset="100%" style="stop-color:#FFD700;stop-opacity:1" />
    </linearGradient>
  </defs>
  <path fill="url(#grad)" d="M16 2L4 8v10c0 7.732 5.268 14 12 14s12-6.268 12-14V8L16 2zm0 4l8 4v8c0 5.523-3.582 10-8 10s-8-4.477-8-10v-8l8-4z"/>
  <path fill="#FFD700" d="M16 10l-5.5 3v6c0 3.866 2.462 7 5.5 7s5.5-3.134 5.5-7v-6L16 10z"/>
  <path fill="#8B0000" d="M14.5 15l1.5 1.5 3-3-1-1-2 2-.5-.5-1 1z"/>
</svg>
